# xmcd CD database file
#
# Track frame offsets:
#	150
#	22546
#	44612
#	80256
#	133891
#	158198
#	195236
#
# Disc length: 2865 seconds
#
# Revision: 2
# Processed by: cddbd v1.5.2PL0 Copyright (c) Steve Scherf et al.
# Submitted via: CDex 1.70beta2
#
DISCID=4b0b2f07
DTITLE=Erik Truffaz - Revisite
DYEAR=2001
DGENRE=Jazz
TTITLE0=The Dawn Part I - Mobile In Motion
TTITLE1=Less - Pierre Audetat
TTITLE2=Bending New Corners - Alex Gopher
TTITLE3=More - Pierre Henry
TTITLE4=Siegfried - Goo
TTITLE5=Sweet Mercy - Bugge Wesseltoft
TTITLE6=The Dawn Part II - Mobile In Motion
EXTD=\n YEAR: 2001
EXTT0=
EXTT1=
EXTT2=
EXTT3=
EXTT4=
EXTT5=
EXTT6=
PLAYORDER=
